<?xml version="1.0" encoding="UTF-8"?><svg id="Layer_2" xmlns="http://www.w3.org/2000/svg" viewBox="0 0 30.07 83.84"><g id="Layer_4"><g><path d="m15.29,2.16c1.83.57-.98,3.05-1.54,3.56-1.63,1.49-3.54,2.95-5.61,3.78-.29.12-2.64,1.74-1.89,1.94,1.52.41,3.05.04,4.5-.48.82-.29,1.61-.64,2.41-.97.59-.25,1.37-.71,2.02-.72s.21-.15.48.31c.09.16.12.51.16.68.16.71.29,1.43.39,2.16.14,1.01.45,2.57-.03,3.54-.33.68-1.19,1.12-1.8,1.5-1.18.73-2.43,1.35-3.68,1.93-2.72,1.27-5.52,2.39-8.34,3.41-.77.28-1.62.73-2.13,1.39-.39.5-.26.81.41.63,3.24-.89,6.35-2.16,9.39-3.59,2.16-1.02,4.27-2.22,6.49-3.09l-1,.1c.88,3.06.78,6.64.36,9.77-.51,3.71-3.27,5.78-6.04,7.93-.4.31-1.46,1.58-.18,1.18,1.98-.63,3.99-1.16,5.9-2.01l-1.02-.05c.13,3.77-1.02,8.16.96,11.62.36.62,3.43-1.25,3.02-1.96-1.93-3.36-.79-7.64-.92-11.31-.02-.47-.81-.15-1.02-.05-1.68.74-3.45,1.19-5.2,1.75l-.18,1.18c3.06-2.37,6.76-5.01,7.6-9.04.71-3.41.7-7.59-.26-10.96-.08-.29-.89.06-1,.1-2.11.83-4.1,1.95-6.14,2.92-2.92,1.4-5.91,2.64-9.04,3.5l-1.72,2.02c5.1-1.84,10.39-3.83,14.93-6.85,1.53-1.02,3.58-2.37,3.84-4.34.27-2.08-.27-4.53-.87-6.52-.1-.09-.22-.12-.35-.09-1.58.2-3.05.82-4.51,1.43s-3.01,1.3-4.66.86l-1.89,1.94c3.25-1.3,6.3-3.57,8.85-5.94.86-.8,4.75-4.44,2.07-5.28-.63-.2-1.6.54-2.06.9-.17.13-1.26,1.06-.7,1.23h0Z"/><path d="m4.09,31.11c-1.36,1.25-2.34,3.18-2.62,4.99-.18,1.16-.11,2.29.39,3.36.59,1.27,1.74,2.17,3.02,2.68.63.26,1.58.04,1.53-.79-.05-.89-.81-1.61-1.59-1.92-.06-.02-.12-.05-.19-.08.24.12.3.14.19.08-.07-.06-.19-.13-.28-.17.13.05.38.27.11.06-.25-.19.27.35.1.1-.04-.06-.26-.36-.08-.08s0-.04-.04-.1c-.17-.28.07.07.02.08,0,0-.08-.22-.08-.23-.02-.08-.04-.16-.06-.24-.08-.25.02.33,0-.01-.01-.19-.03-.38-.02-.57,0-.09,0-.18.01-.27,0-.04.04-.4.02-.2s.03-.17.04-.2c.02-.09.04-.18.06-.28.1-.41.23-.8.39-1.19.07-.18.15-.36.24-.53.05-.1.1-.2.15-.3.14-.29-.07.11.05-.1.39-.64.82-1.25,1.38-1.76.24-.22.22-.7.14-.97-.11-.4-.42-.83-.74-1.09-.58-.47-1.49-.87-2.13-.28h0Z"/><path d="m12.61,45.01c2.37-1.78,4.65-3.89,7.46-4.96.61-.23,1.26-.42,1.91-.45.09,0,.57.02.58.02-.24.18-1.54-.88-1.51-.5.01.16.37.49.44.7.32,1.02-.21,2.21-.66,3.1-1.13,2.25-2.78,4.28-4.26,6.31-.94,1.29-2.35,2.58-2.52,4.24-.2,1.93.83,3.76.63,5.71-.37,3.73-3.53,4.99-6.87,5.14-.29.01,1,.68,1.08.71.62.26,1.44.64,2.13.61,3.16-.14,6.38-1.24,6.97-4.74.38-2.24-.99-4.39-.51-6.57.37-1.7,1.93-3.08,2.89-4.48,1.57-2.29,3.89-4.62,4.49-7.41.24-1.14-.08-2.04-1.07-2.67-1.39-.88-3.35-1.59-5.02-1.5-3.63.2-6.79,3.42-9.53,5.48-.1.07,1.48.8,1.61.85.34.13,1.42.67,1.77.4h0Z"/><path d="m17.58,57.65c2.02-.66,5.17-.94,7.43-.12,2.65.95,1.18,3.52-.06,5.07-4.17,5.21-10.01,8.87-14.52,13.77-1.51,1.63-3.92,4.28-3.14,6.74.41,1.3,3.93.68,3.57-.47-.71-2.26,1.73-4.64,3.11-6.1,2.56-2.7,5.46-5.08,8.25-7.54s12.64-10.54,5.05-13.15c-3.28-1.13-7.59-.94-10.87.13-.52.17-1.49.61-1.1,1.3.37.64,1.73.54,2.28.36h0Z"/></g></g></svg>