<?xml version="1.0" encoding="UTF-8"?><svg id="Layer_2" xmlns="http://www.w3.org/2000/svg" viewBox="0 0 109.03 87.06"><defs><style>.cls-1{fill:#fff;}.cls-2{fill:red;}.cls-3{fill:none;stroke:#c1272d;stroke-miterlimit:10;stroke-width:6.48px;}</style></defs><g id="Layer_4"><g><g><rect class="cls-2" x="3.24" y="3.24" width="102.55" height="80.58" rx="19" ry="19"/><rect class="cls-3" x="3.24" y="3.24" width="102.55" height="80.58" rx="19" ry="19"/></g><g><path class="cls-1" d="m68.56,17.67c-3.6-.02-7.19-.51-10.79-.59-4.43-.1-9.01-.06-13.01,2.05-1.39.74-4.1,1.91-4.13,3.85-.03,1.59,1.39,2.8,2.66,3.49,4.16,2.27,9.67,2.35,14.28,2.35,2.98,0,5.98-.17,8.94-.54,2.05-.25,4.17-.54,6.13-1.24.97-.35,1.9-.89,2.77-1.44.18-.12,1.39-.99,1.1-1-2.44-.03-4.9.5-7.26,1.07-3.3.8-6.53,1.84-9.7,3.05-7.45,2.85-15,6.56-21.11,11.77-4.17,3.55-8.33,9.1-5.64,14.78,2.9,6.13,11.47.81,15.14-1.49,3.41-2.13,6.57-4.64,9.47-7.42,1.98-1.9,4.14-3.95,5.52-6.35.18-.31-1.57.5-1.69.57-.71.38-2.15.94-2.58,1.69-1.02,1.78-2.52,3.32-3.94,4.78-2.03,2.08-4.22,4.03-6.55,5.76-.51.38-1.02.74-1.54,1.09-.42.28-.27.18-.63.4-.4.24.51-.29-.15.09-.41.24.12-.06-.14.08-.09.04-.49.26-.95.44-.6.23-1.21.43-1.84.55-2.05.39-4.08-.01-5.31-1.82-3.07-4.51-.36-9.97,2.97-13.39.99-1.02,2.09-1.96,3.23-2.81.57-.43,1.15-.83,1.74-1.22.12-.08.67-.43.63-.41.16-.1.98-.59.84-.51,1.33-.78,2.42-1.34,3.97-2.07,1.43-.68,2.89-1.3,4.37-1.88,3.18-1.26,6.46-2.34,9.78-3.14,2.36-.57,4.82-1.11,7.26-1.07l3.87-2.44c-3.57,1.28-7.73,1.42-11.47,1.58-4.81.2-9.93.17-14.58-1.22-2.27-.68-6.41-2.61-4.84-5.6.05-.1.16-.12.19-.2-.04.18-1.98,1.29-2.2,1.29-.02,0,.58-.19.82-.26.87-.23,1.77-.35,2.66-.45,2.14-.24,4.31-.26,6.46-.22,3.72.07,7.44.58,11.16.6.87,0,2.05-.91,2.77-1.35.23-.14,1.6-1.16,1.35-1.16h0Z"/><path class="cls-1" d="m36.74,79.77c.12-7.53,4.55-14.49,9.11-20.18,5.4-6.74,11.84-12.66,18.62-17.99,3.12-2.45,6.35-4.77,9.69-6.9.91-.58.93-1.56.03-2.17s-2.58-.66-3.54-.05c-6.78,4.33-13.17,9.37-19.07,14.85-6.36,5.91-12.48,12.58-16.48,20.36-1.91,3.71-3.3,7.81-3.36,12.02-.03,2.09,4.97,2.17,5,.07h0Z"/><path class="cls-1" d="m72.9,20.14c-.66,12.06-3.05,24.36-7.07,35.75-.49,1.39,3.13,4.66,3.64,3.21,4.02-11.39,6.41-23.7,7.07-35.75.06-1.09-.73-2.09-1.51-2.77-.24-.21-2.07-1.46-2.12-.44h0Z"/><path class="cls-1" d="m77.45,14.12c-.18-2.23-1.14-4.29-2.34-6.15-.32-.5-1.03-.93-1.59-1.11-.5-.16-1.22-.24-1.71,0-.45.21-.86.57-.91,1.1-.06.57.15,1.04.46,1.52.1.15.19.3.28.45l-.3-.5c.5.84.92,1.73,1.21,2.67l-.16-.51c.2.66.33,1.33.39,2.01.04.54.5,1.13.89,1.47.45.4,1.16.75,1.77.79.52.04,1.14,0,1.54-.39s.52-.81.48-1.35h0Z"/></g></g></g></svg>